<?xml version="1.0" encoding="utf-8"?>
<!-- Generator: Adobe Illustrator 21.0.0, SVG Export Plug-In . SVG Version: 6.00 Build 0)  -->
<svg version="1.1" id="图层_1" xmlns="http://www.w3.org/2000/svg" xmlns:xlink="http://www.w3.org/1999/xlink" x="0px" y="0px"
	 viewBox="0 0 83.997 84" style="enable-background:new 0 0 83.997 84;" xml:space="preserve">
<style type="text/css">
	.st0{fill:#F23836;}
	.st1{fill:#F7FB61;}
</style>
<g>
	<g>
		<path class="st0" d="M53.3,19.709l0.006-2.133l-11.239-4.805l-12.002,5.013l-0.006,1.942C14.009,22.493,2.35,30.816,2.35,40.654
			c0,10.175,12.47,18.728,29.372,21.192v9.382h19.71v-9.338c17.059-2.404,29.682-11,29.682-21.236
			C81.115,30.795,69.405,22.458,53.3,19.709z"/>
		<g>
			<path class="st1" d="M29.543,21.236c-1.87,0.655-3.727,1.347-5.531,2.174c-3.969,1.817-7.681,4.021-10.733,7.199
				c-2.059,2.145-3.607,4.598-4.045,7.59c-0.465,3.165,0.487,5.996,2.348,8.542c2.504,3.427,5.9,5.76,9.579,7.728
				c4.794,2.567,9.907,4.301,15.137,5.709c0.519,0.14,0.705,0.335,0.7,0.887c-0.003,0.368-0.006,0.777-0.007,1.216
				c-0.001,0.144-0.003,0.293-0.003,0.443c-0.003,0.775-0.004,1.631-0.006,2.521c-0.003,1.998,0,4.166,0,5.984h3.745
				c-0.004-1.864-0.01-4.004-0.01-5.984c0-0.827,0.001-1.625,0.003-2.364c0-0.15,0.001-0.297,0.001-0.441
				c0.001-0.546,0.004-1.053,0.009-1.508c0.004-0.624-0.182-0.871-0.785-1.04c-5.363-1.503-10.563-3.427-15.429-6.173
				c-3.548-2.003-6.821-4.36-9.23-7.715c-2.608-3.632-3.285-7.533-1.34-11.689c1.043-2.233,2.645-4.039,4.497-5.645
				c3.315-2.88,7.15-4.867,11.16-6.557c0.181-0.076,0.488-0.223,0.489-0.214v-0.837C30.018,21.084,29.782,21.152,29.543,21.236z"/>
			<path class="st1" d="M30.159,19.807c-0.23,0.043-0.443,0.038-0.798,0.104c-0.243,0.044-0.485,0.09-0.725,0.138
				c-13.56,2.673-23.73,9.326-25.959,17.429c-0.003,0.009-0.004,0.018-0.006,0.025c-0.297,1.087-0.452,2.201-0.452,3.335
				c0,9.977,11.929,18.409,28.296,21.131c0.006,0.004,0.075,0.016,0.075,0.016s0.007,0.612,0.007,0.634
				c-0.001,0.703-0.003,1.617-0.006,2.626c0,0.237,0,0.48-0.001,0.725c-0.003,1.724-0.004,3.641-0.01,5.259h3.824
				c-0.007-1.9-0.016-4.105-0.018-5.984c0-1.005,0-1.915,0.004-2.637c0-0.038,0-0.076-0.001-0.112
				c-0.004-0.184-0.026-0.331-0.078-0.453c-0.097-0.224-0.3-0.357-0.705-0.455c-5.757-1.394-11.306-3.357-16.418-6.4
				c-3.632-2.162-6.912-4.742-9.212-8.368c-1.868-2.945-2.707-6.118-1.858-9.596c0.774-3.17,2.646-5.642,5.026-7.771
				c3.941-3.523,8.628-5.713,13.537-7.486c1.537-0.556,3.112-1.009,4.678-1.489c0.215-0.066,0.795-0.188,0.8-0.175
				C30.159,20.304,30.159,20.036,30.159,19.807z"/>
		</g>
		<g>
			<path class="st1" d="M54.454,21.236c1.87,0.655,3.727,1.347,5.531,2.174c3.969,1.817,7.681,4.021,10.733,7.199
				c2.059,2.145,3.607,4.598,4.045,7.59c0.465,3.165-0.487,5.996-2.348,8.542c-2.504,3.427-5.9,5.76-9.579,7.728
				c-4.794,2.567-9.907,4.301-15.137,5.709c-0.519,0.14-0.705,0.335-0.7,0.887c0.003,0.368,0.006,0.777,0.007,1.216
				c0.001,0.144,0.003,0.293,0.003,0.443c0.003,0.775,0.004,1.631,0.006,2.521c0.003,1.998,0,4.166,0,5.984H43.27
				c0.004-1.864,0.01-4.004,0.01-5.984c0-0.827-0.001-1.625-0.003-2.364c0-0.15-0.001-0.297-0.001-0.441
				c-0.001-0.546-0.004-1.053-0.009-1.508c-0.004-0.624,0.182-0.871,0.785-1.04c5.363-1.503,10.563-3.427,15.429-6.173
				c3.548-2.003,6.821-4.36,9.23-7.715c2.608-3.632,3.285-7.533,1.34-11.689c-1.043-2.233-2.645-4.039-4.497-5.645
				c-3.315-2.88-7.15-4.867-11.16-6.557c-0.181-0.076-1.098-0.383-1.098-0.373v-0.837C53.37,20.924,54.215,21.152,54.454,21.236z"/>
			<path class="st1" d="M53.278,19.697c0.23,0.043,1.004,0.148,1.358,0.214c0.243,0.044,0.485,0.09,0.725,0.138
				c13.56,2.673,23.73,9.326,25.959,17.429c0.003,0.009,0.004,0.018,0.006,0.025c0.297,1.087,0.452,2.201,0.452,3.335
				c0,9.977-11.929,18.409-28.296,21.131c-0.006,0.004-0.075,0.016-0.075,0.016s-0.007,0.612-0.007,0.634
				c0.001,0.703,0.003,1.617,0.006,2.626c0,0.237,0,0.48,0.001,0.725c0.003,1.724,0.004,3.641,0.01,5.259h-3.824
				c0.007-1.9,0.016-4.105,0.018-5.984c0-1.005,0-1.915-0.004-2.637c0-0.038,0-0.076,0.001-0.112
				c0.004-0.184,0.026-0.331,0.078-0.453c0.097-0.224,0.3-0.357,0.705-0.455c5.757-1.394,11.306-3.357,16.418-6.4
				c3.632-2.162,6.912-4.742,9.212-8.368c1.868-2.945,2.707-6.118,1.858-9.596c-0.774-3.17-2.646-5.642-5.026-7.771
				c-3.941-3.523-8.628-5.713-13.537-7.486c-1.537-0.556-3.112-1.009-4.678-1.489c-0.215-0.066-1.355-0.298-1.36-0.285
				C53.278,20.194,53.278,19.926,53.278,19.697z"/>
		</g>
	</g>
	<g>
		<polygon class="st1" points="30.066,54.533 32.125,55.085 32.125,35.926 30.066,35.926 		"/>
		<polygon class="st1" points="38.805,56.74 40.865,57.291 40.865,33.278 38.805,33.278 		"/>
		<path class="st1" d="M49.231,33.45l4.557,1.418v-8.957l-10.119-4.079v9.886l3.503,1.09v23.207l1.03-0.276l3.481-0.89v0.025
			l2.059-0.552v-3.837v-8.495l-2.059-2.17v10.664h-2.452V33.45z M46.43,25.409l4.597,1.839v4.045l-4.597-1.508V25.409z"/>
		<polygon class="st1" points="42.942,57.083 45.002,56.531 45.002,35.08 42.942,35.08 		"/>
		<polygon class="st1" points="40.656,29.573 40.656,21.707 36.636,23.332 36.636,19.656 40.656,17.981 40.656,13.372 
			30.066,17.785 30.066,22.393 34.576,20.514 34.576,24.165 30.066,25.988 30.066,33.352 34.576,31.743 34.576,55.673 
			36.636,56.225 36.636,31.008 		"/>
		<polygon class="st1" points="47.055,14.904 43.451,13.372 43.451,18.226 47.055,19.844 		"/>
		<polygon class="st1" points="53.306,17.576 49.702,16.044 49.702,20.898 53.306,22.516 		"/>
	</g>
</g>
</svg>
